<svg id="Capa_1" enable-background="new 0 0 512 512" height="512" viewBox="0 0 512 512" width="512" xmlns="http://www.w3.org/2000/svg"><path d="m359.86 68.003c0-5.51 4.48-10 10-10 5.511 0 10 4.49 10 10s-4.489 10-10 10c-5.52 0-10-4.49-10-10zm149.19 136.058c1.885 1.873 2.946 4.42 2.95 7.077.004 2.658-1.05 5.207-2.929 7.086l-23.154 23.153c-.188.192-.382.376-.583.553-1.088.954-2.333 1.633-3.644 2.036-1.288.398-2.672.541-4.083.377h-.001c-.001 0-.002 0-.003 0-.239-.027-.477-.063-.714-.108-.044-.008-.086-.016-.13-.025l-78.798-14.735-24.619 24.62c-.006.005-.011.011-.017.016-.152.152-.309.299-.469.439l-74.326 66.231c1.972 7.434 2.43 15.296 1.211 23.082-1.133 7.232-5.703 13.293-12.187 16.393.728 6.706-1.38 13.677-6.355 19.037-1.73 1.866-3.604 3.734-5.564 5.553-5.554 5.15-12.612 7.608-19.642 7.432-1.721 6.121-5.771 11.259-11.441 14.385-2.407 1.328-4.926 2.658-7.487 3.953-5.68 2.874-11.979 3.655-17.921 2.5-2.427 4.769-6.54 8.532-11.677 10.511l-.857.329c-8.306 3.179-17.188 3.712-25.518 1.832l-86.956 77.761c-6.316 5.649-14.233 8.451-22.135 8.451-8.523 0-17.029-3.26-23.492-9.723l-1.782-1.783c-12.455-12.455-13.014-32.497-1.271-45.626l13.134-14.783-55.661-55.66c-3.905-3.905-3.905-10.237 0-14.142l51.674-51.675c34.097-34.095 88.189-60.187 144.701-69.795 9.728-1.655 19.584-.986 28.823 1.766l66.325-74.429c.128-.146.261-.289.398-.429.002-.003.005-.005.007-.008l.009-.009c.006-.005.012-.011.017-.017.002-.001.003-.003.005-.004.006-.007.013-.013.02-.02l24.62-24.62-7.39-39.52c-44.924-11.902-78.138-52.906-78.138-101.52 0-5.523 4.478-10 10-10s10 4.477 10 10c0 9.925 8.075 18 18 18h24.408c-.164-.601-.321-1.205-.468-1.81-1.29-5.27-1.939-10.72-1.939-16.19 0-2.63 1.069-5.21 2.93-7.07 1.86-1.86 4.44-2.93 7.07-2.93h72c10.42 0 20.21 4.06 27.569 11.42 4.698 4.698 8.051 10.379 9.865 16.58h30.733c37.403 0 67.833 30.43 67.833 67.833 0 30.105-19.713 55.692-46.908 64.531zm-170.05-109.058h85c5.522 0 10 4.477 10 10s-4.478 10-10 10h-4.131l28.297 28.501c24.512-2.037 43.834-22.638 43.834-47.668 0-26.375-21.458-47.833-47.833-47.833h-30.229c-.55 2.125-1.795 4.024-3.518 5.38-2.36 1.85-5.521 2.55-8.45 1.86-2.6-.61-4.81-2.19-6.21-4.46-1.41-2.27-1.85-4.95-1.24-7.55.28-1.2.44-2.43.471-3.65 0-.01.01-.38.01-.58-.021-10.46-8.54-18.98-19-19h-60.96c2.399 11.36 8.899 21.48 18.29 28.5 2.14 1.6 3.529 3.94 3.92 6.58.38 2.64-.28 5.28-1.88 7.42-1.91 2.55-4.83 4.02-8.021 4.02-2.17 0-4.24-.69-5.979-1.98-6.127-4.569-11.479-10.2-15.765-16.54h-33.606c-3.326 0-6.555-.43-9.632-1.236 13.734 28.514 42.922 48.236 76.632 48.236zm-177.075 321.094c-.77-.668-1.519-1.366-2.246-2.093l-23.769-23.769-56.304 56.305-19.221 21.634c-4.693 5.248-4.471 13.222.485 18.177l1.782 1.783c4.953 4.955 12.926 5.177 18.151.505zm108.023-106.338-28.938-28.937c-4.011-4.012-8.701-7.155-13.773-9.334-.042-.018-.084-.036-.127-.055-7.626-3.25-16.111-4.323-24.453-2.905-52.577 8.939-102.638 32.947-133.911 64.221l-44.603 44.603 48.184 48.184 49.442-49.442-20.533-20.533c-3.905-3.905-3.905-10.237 0-14.142 3.908-3.905 10.238-3.904 14.143 0l58.443 58.444c2.38 2.379 5.187 4.181 8.216 5.362.09.033.18.067.269.103 5.42 2.039 11.528 2.103 17.165-.055l.811-.311c.823-.317 1.118-.957 1.22-1.438.104-.488.093-1.202-.546-1.84l-9.813-9.814c-3.905-3.905-3.905-10.237 0-14.142 3.907-3.905 10.237-3.904 14.143 0l13.53 13.531c2.452 2.452 6.157 3.061 9.223 1.51 2.351-1.189 4.657-2.406 6.857-3.62 1.474-.813 1.865-2.148 1.968-2.873.105-.744.099-2.173-1.126-3.409l-24.805-24.805c-3.905-3.905-3.905-10.237 0-14.142 3.907-3.905 10.237-3.904 14.143 0l24.79 24.791c.011.011.021.022.033.033l1.136 1.136c3.056 3.057 7.89 3.187 11.002.301 1.596-1.48 3.111-2.992 4.505-4.493 1.516-1.633 1.505-4.11-.024-5.64l-3.981-3.981c-.028-.029-.058-.058-.087-.086l-31.726-31.726c-3.905-3.905-3.905-10.237 0-14.142 3.906-3.905 10.236-3.905 14.143 0l31.756 31.756c.573.554 1.253.71 2.025.456.764-.249 1.214-.772 1.336-1.555 2.091-13.372-3.814-24.787-10.037-31.011zm81.762-63.154-49.313-49.312-55.576 62.366c2.947 2.083 5.737 4.426 8.331 7.02l28.938 28.938c1.994 1.995 3.818 4.125 5.468 6.373zm28.766-27.928-50.149-50.15-14.205 14.205 50.15 50.15zm68.361-.035-103.639-103.639h-6.198c-1.979 0-3.943-.055-5.896-.164l6.482 34.664 59.913 59.914zm38.999-7.467-50.719-50.413c-.023-.023-.047-.047-.07-.07l-45.36-45.688h-18.203l105.262 105.263z"/></svg>